Coordinates
version=1
nRows=8
nColumns=36
inDegrees=yes

Units are S.I. units (second, meters, Newtons, ...)
If the header above contains a line with 'inDegrees', this indicates whether rotational values are in degrees (yes) or radians (no).

endheader
time	pelvis_tilt	pelvis_list	pelvis_rotation	pelvis_tx	pelvis_ty	pelvis_tz	hip_flexion_r	hip_adduction_r	hip_rotation_r	knee_angle_r	knee_angle_r_beta	ankle_angle_r	subtalar_angle_r	mtp_angle_r	hip_flexion_l	hip_adduction_l	hip_rotation_l	knee_angle_l	knee_angle_l_beta	ankle_angle_l	subtalar_angle_l	mtp_angle_l	lumbar_extension	lumbar_bending	lumbar_rotation	arm_flex_r	arm_add_r	arm_rot_r	elbow_flex_r	pro_sup_r	arm_flex_l	arm_add_l	arm_rot_l	elbow_flex_l	pro_sup_l
      0.86000000	    -16.21468126	     -0.48145589	      0.15047318	     -0.74522123	      1.31903190	     -0.57176600	     35.51355834	      1.15420502	      2.07970514	     64.26973252	      1.12171844	    -10.00744176	    -22.66820588	     -5.62781032	     28.52039915	      0.55045323	      4.46948705	     55.24924103	      0.96428117	    -12.55077854	     -8.45698699	     -5.62781032	    -14.21013049	     -0.84390465	     -4.49370370	     36.42719808	    -24.06622311	     12.62743683	    119.27283118	    105.00896453	     24.02013442	    -14.42039786	     10.58753108	    116.92041952	    109.08868788
      0.87000000	    -16.01011909	     -0.44088650	      0.08173807	     -0.73707726	      1.32157566	     -0.57195571	     37.28424459	      0.87555128	      1.97154207	     65.41526122	      1.14171169	     -9.89006366	    -23.00366183	     -5.65515460	     30.28402654	      0.55410148	      4.09737781	     58.05454217	      1.01324291	    -12.56960418	     -8.50821356	     -5.65515460	    -14.95712826	     -0.83267459	     -4.39061258	     33.83632482	    -25.34281156	     12.07540801	    116.92468764	    104.88220323	     22.22842358	    -14.09750084	      9.20713329	    114.37579839	    108.73311021
      0.88000000	    -15.81700010	     -0.54900404	      0.05748579	     -0.72892962	      1.32328865	     -0.57202363	     38.87257235	      0.80003388	      1.86103043	     65.84969335	      1.14929396	    -10.45222300	    -23.94624781	     -5.75478317	     32.08041279	      0.34341971	      3.76217985	     60.71076165	      1.05960268	    -12.09267932	     -8.10943481	     -5.75478317	    -15.75677483	     -0.71924066	     -3.83047240	     30.74923729	    -26.92647382	     10.90656990	    114.79457804	    104.89308178	     20.98331920	    -13.66179030	      8.45842215	    111.30969459	    108.45286332
      0.89000000	    -15.59692441	     -0.62524723	     -0.01618859	     -0.72057482	      1.32422801	     -0.57200148	     40.21957386	      0.73532062	      1.83865606	     65.67493631	      1.14624387	    -10.61742723	    -24.50407825	     -5.78912587	     33.73612800	      0.16178969	      3.44290484	     63.03076026	      1.10009430	    -11.75661168	     -8.49276993	     -5.78912587	    -16.56645708	     -0.59289698	     -3.61913317	     28.26278360	    -28.31983188	     10.60898774	    112.05478714	    104.71640256	     19.40393120	    -13.44936231	      7.22621042	    108.45799064	    108.13341278
      0.90000000	    -15.27132779	     -0.59001053	     -0.08883568	     -0.71195268	      1.32461137	     -0.57191294	     41.20747679	      0.57052822	      1.90546530	     64.90237549	      1.13276014	    -10.65943814	    -24.99300289	     -5.80374402	     35.10768558	      0.08672429	      3.12197092	     64.87125292	      1.13221695	    -11.32926442	     -8.98803578	     -5.80374402	    -17.51942554	     -0.65767871	     -3.40672563	     25.84124879	    -29.79177622	     10.45957759	    109.13835946	    104.50314957	     17.88995575	    -13.13386275	      5.89468656	    105.68065607	    107.78210586
      0.91000000	    -15.17582450	     -0.60392634	     -0.04064817	     -0.70323490	      1.32403372	     -0.57182670	     42.18565362	      0.39774484	      1.86088326	     63.48855607	      1.10808434	    -11.12175417	    -25.52587250	     -5.82040108	     36.66385235	      0.02472161	      3.00906126	     66.34909511	      1.15801017	    -10.95771094	     -9.49151327	     -5.82040108	    -18.17360531	     -0.64207235	     -3.25718500	     23.27722348	    -31.19383220	     10.31644554	    106.27809003	    104.29414116	     16.45640496	    -12.93679540	      4.70458544	    102.59265690	    107.39753787
      0.92000000	    -15.11673369	     -0.67632243	      0.09129646	     -0.69440153	      1.32264402	     -0.57153601	     42.95404624	      0.27569498	      1.67416301	     61.47134082	      1.07287729	    -13.40833086	    -27.53438643	     -5.90524635	     38.20220078	     -0.12779742	      2.96180021	     67.48286771	      1.17779823	    -10.81094832	     -9.80439685	     -5.90524635	    -18.82560771	     -0.61060112	     -2.62911452	     19.95964685	    -32.62872515	      9.09667697	    104.11078313	    104.22113326	     15.57020698	    -12.79063868	      4.45016831	     99.16435337	    106.98197554
      0.93000000	    -14.99423755	     -0.44680391	      0.20393818	     -0.68509342	      1.32044364	     -0.57128424	     43.45611801	     -0.14439016	      1.71796033	     59.22363774	      1.03364747	    -14.05498094	    -27.60046535	     -5.93911413	     39.40524741	      0.00808288	      2.74857485	     68.00820818	      1.18696715	    -10.72151301	    -10.05217427	     -5.93911413	    -19.49210227	     -0.86254701	     -2.73243756	     17.53458465	    -33.60871285	      8.71148031	    101.30991878	    104.20213021	     14.05465406	    -12.92858252	      3.42747308	     96.48540822	    106.56536359
